<?xml version="1.0" encoding="utf-8" standalone="no"?>
<!DOCTYPE svg PUBLIC "-//W3C//DTD SVG 1.1//EN"
  "http://www.w3.org/Graphics/SVG/1.1/DTD/svg11.dtd">
<!-- Created with matplotlib (https://matplotlib.org/) -->
<svg height="514.8pt" version="1.1" viewBox="0 0 748.8 514.8" width="748.8pt" xmlns="http://www.w3.org/2000/svg" xmlns:xlink="http://www.w3.org/1999/xlink">
 <defs>
  <style type="text/css">
*{stroke-linecap:butt;stroke-linejoin:round;}
  </style>
 </defs>
 <g id="figure_1">
  <g id="patch_1">
   <path d="M 0 514.8 
L 748.8 514.8 
L 748.8 0 
L 0 0 
z
" style="fill:#ffffff;"/>
  </g>
  <g id="axes_1">
   <g id="patch_2">
    <path d="M 89.95 460.76 
L 735.48 460.76 
L 735.48 45.024 
L 89.95 45.024 
z
" style="fill:#ffffff;"/>
   </g>
   <g id="patch_3">
    <path clip-path="url(#p64649ad329)" d="M 119.292273 460.76 
L 240.113396 460.76 
L 240.113396 389.577815 
L 119.292273 389.577815 
z
" style="fill:#1f77b4;"/>
   </g>
   <g id="patch_4">
    <path clip-path="url(#p64649ad329)" d="M 464.495481 460.76 
L 585.316604 460.76 
L 585.316604 263.322244 
L 464.495481 263.322244 
z
" style="fill:#1f77b4;"/>
   </g>
   <g id="patch_5">
    <path clip-path="url(#p64649ad329)" d="M 240.113396 460.76 
L 360.934519 460.76 
L 360.934519 364.265978 
L 240.113396 364.265978 
z
" style="fill:#ff7f0e;"/>
   </g>
   <g id="patch_6">
    <path clip-path="url(#p64649ad329)" d="M 585.316604 460.76 
L 706.137727 460.76 
L 706.137727 140.547738 
L 585.316604 140.547738 
z
" style="fill:#ff7f0e;"/>
   </g>
   <g id="patch_7">
    <path clip-path="url(#p64649ad329)" d="M 240.113396 460.76 
L 360.934519 460.76 
L 360.934519 454.599369 
L 240.113396 454.599369 
z
" style="fill:#2ca02c;"/>
   </g>
   <g id="patch_8">
    <path clip-path="url(#p64649ad329)" d="M 585.316604 460.76 
L 706.137727 460.76 
L 706.137727 430.205338 
L 585.316604 430.205338 
z
" style="fill:#2ca02c;"/>
   </g>
   <g id="matplotlib.axis_1">
    <g id="xtick_1">
     <g id="line2d_1">
      <defs>
       <path d="M 0 0 
L 0 3.5 
" id="m3b344afe20" style="stroke:#000000;stroke-width:1.3;"/>
      </defs>
      <g>
       <use style="stroke:#000000;stroke-width:1.3;" x="240.113396" xlink:href="#m3b344afe20" y="460.76"/>
      </g>
     </g>
     <g id="text_1">
      <!-- 1 hop -->
      <defs>
       <path d="M 12.40625 8.296875 
L 28.515625 8.296875 
L 28.515625 63.921875 
L 10.984375 60.40625 
L 10.984375 69.390625 
L 28.421875 72.90625 
L 38.28125 72.90625 
L 38.28125 8.296875 
L 54.390625 8.296875 
L 54.390625 0 
L 12.40625 0 
z
" id="DejaVuSans-49"/>
       <path id="DejaVuSans-32"/>
       <path d="M 54.890625 33.015625 
L 54.890625 0 
L 45.90625 0 
L 45.90625 32.71875 
Q 45.90625 40.484375 42.875 44.328125 
Q 39.84375 48.1875 33.796875 48.1875 
Q 26.515625 48.1875 22.3125 43.546875 
Q 18.109375 38.921875 18.109375 30.90625 
L 18.109375 0 
L 9.078125 0 
L 9.078125 75.984375 
L 18.109375 75.984375 
L 18.109375 46.1875 
Q 21.34375 51.125 25.703125 53.5625 
Q 30.078125 56 35.796875 56 
Q 45.21875 56 50.046875 50.171875 
Q 54.890625 44.34375 54.890625 33.015625 
z
" id="DejaVuSans-104"/>
       <path d="M 30.609375 48.390625 
Q 23.390625 48.390625 19.1875 42.75 
Q 14.984375 37.109375 14.984375 27.296875 
Q 14.984375 17.484375 19.15625 11.84375 
Q 23.34375 6.203125 30.609375 6.203125 
Q 37.796875 6.203125 41.984375 11.859375 
Q 46.1875 17.53125 46.1875 27.296875 
Q 46.1875 37.015625 41.984375 42.703125 
Q 37.796875 48.390625 30.609375 48.390625 
z
M 30.609375 56 
Q 42.328125 56 49.015625 48.375 
Q 55.71875 40.765625 55.71875 27.296875 
Q 55.71875 13.875 49.015625 6.21875 
Q 42.328125 -1.421875 30.609375 -1.421875 
Q 18.84375 -1.421875 12.171875 6.21875 
Q 5.515625 13.875 5.515625 27.296875 
Q 5.515625 40.765625 12.171875 48.375 
Q 18.84375 56 30.609375 56 
z
" id="DejaVuSans-111"/>
       <path d="M 18.109375 8.203125 
L 18.109375 -20.796875 
L 9.078125 -20.796875 
L 9.078125 54.6875 
L 18.109375 54.6875 
L 18.109375 46.390625 
Q 20.953125 51.265625 25.265625 53.625 
Q 29.59375 56 35.59375 56 
Q 45.5625 56 51.78125 48.09375 
Q 58.015625 40.1875 58.015625 27.296875 
Q 58.015625 14.40625 51.78125 6.484375 
Q 45.5625 -1.421875 35.59375 -1.421875 
Q 29.59375 -1.421875 25.265625 0.953125 
Q 20.953125 3.328125 18.109375 8.203125 
z
M 48.6875 27.296875 
Q 48.6875 37.203125 44.609375 42.84375 
Q 40.53125 48.484375 33.40625 48.484375 
Q 26.265625 48.484375 22.1875 42.84375 
Q 18.109375 37.203125 18.109375 27.296875 
Q 18.109375 17.390625 22.1875 11.75 
Q 26.265625 6.109375 33.40625 6.109375 
Q 40.53125 6.109375 44.609375 11.75 
Q 48.6875 17.390625 48.6875 27.296875 
z
" id="DejaVuSans-112"/>
      </defs>
      <g transform="translate(221.688943 483.237969)scale(0.13 -0.13)">
       <use xlink:href="#DejaVuSans-49"/>
       <use x="63.623047" xlink:href="#DejaVuSans-32"/>
       <use x="95.410156" xlink:href="#DejaVuSans-104"/>
       <use x="158.789062" xlink:href="#DejaVuSans-111"/>
       <use x="219.970703" xlink:href="#DejaVuSans-112"/>
      </g>
     </g>
    </g>
    <g id="xtick_2">
     <g id="line2d_2">
      <g>
       <use style="stroke:#000000;stroke-width:1.3;" x="585.316604" xlink:href="#m3b344afe20" y="460.76"/>
      </g>
     </g>
     <g id="text_2">
      <!-- 2 hops -->
      <defs>
       <path d="M 19.1875 8.296875 
L 53.609375 8.296875 
L 53.609375 0 
L 7.328125 0 
L 7.328125 8.296875 
Q 12.9375 14.109375 22.625 23.890625 
Q 32.328125 33.6875 34.8125 36.53125 
Q 39.546875 41.84375 41.421875 45.53125 
Q 43.3125 49.21875 43.3125 52.78125 
Q 43.3125 58.59375 39.234375 62.25 
Q 35.15625 65.921875 28.609375 65.921875 
Q 23.96875 65.921875 18.8125 64.3125 
Q 13.671875 62.703125 7.8125 59.421875 
L 7.8125 69.390625 
Q 13.765625 71.78125 18.9375 73 
Q 24.125 74.21875 28.421875 74.21875 
Q 39.75 74.21875 46.484375 68.546875 
Q 53.21875 62.890625 53.21875 53.421875 
Q 53.21875 48.921875 51.53125 44.890625 
Q 49.859375 40.875 45.40625 35.40625 
Q 44.1875 33.984375 37.640625 27.21875 
Q 31.109375 20.453125 19.1875 8.296875 
z
" id="DejaVuSans-50"/>
       <path d="M 44.28125 53.078125 
L 44.28125 44.578125 
Q 40.484375 46.53125 36.375 47.5 
Q 32.28125 48.484375 27.875 48.484375 
Q 21.1875 48.484375 17.84375 46.4375 
Q 14.5 44.390625 14.5 40.28125 
Q 14.5 37.15625 16.890625 35.375 
Q 19.28125 33.59375 26.515625 31.984375 
L 29.59375 31.296875 
Q 39.15625 29.25 43.1875 25.515625 
Q 47.21875 21.78125 47.21875 15.09375 
Q 47.21875 7.46875 41.1875 3.015625 
Q 35.15625 -1.421875 24.609375 -1.421875 
Q 20.21875 -1.421875 15.453125 -0.5625 
Q 10.6875 0.296875 5.421875 2 
L 5.421875 11.28125 
Q 10.40625 8.6875 15.234375 7.390625 
Q 20.0625 6.109375 24.8125 6.109375 
Q 31.15625 6.109375 34.5625 8.28125 
Q 37.984375 10.453125 37.984375 14.40625 
Q 37.984375 18.0625 35.515625 20.015625 
Q 33.0625 21.96875 24.703125 23.78125 
L 21.578125 24.515625 
Q 13.234375 26.265625 9.515625 29.90625 
Q 5.8125 33.546875 5.8125 39.890625 
Q 5.8125 47.609375 11.28125 51.796875 
Q 16.75 56 26.8125 56 
Q 31.78125 56 36.171875 55.265625 
Q 40.578125 54.546875 44.28125 53.078125 
z
" id="DejaVuSans-115"/>
      </defs>
      <g transform="translate(563.506057 483.237969)scale(0.13 -0.13)">
       <use xlink:href="#DejaVuSans-50"/>
       <use x="63.623047" xlink:href="#DejaVuSans-32"/>
       <use x="95.410156" xlink:href="#DejaVuSans-104"/>
       <use x="158.789062" xlink:href="#DejaVuSans-111"/>
       <use x="219.970703" xlink:href="#DejaVuSans-112"/>
       <use x="283.447266" xlink:href="#DejaVuSans-115"/>
      </g>
     </g>
    </g>
    <g id="text_3">
     <!-- Amount of hops -->
     <defs>
      <path d="M 34.1875 63.1875 
L 20.796875 26.90625 
L 47.609375 26.90625 
z
M 28.609375 72.90625 
L 39.796875 72.90625 
L 67.578125 0 
L 57.328125 0 
L 50.6875 18.703125 
L 17.828125 18.703125 
L 11.1875 0 
L 0.78125 0 
z
" id="DejaVuSans-65"/>
      <path d="M 52 44.1875 
Q 55.375 50.25 60.0625 53.125 
Q 64.75 56 71.09375 56 
Q 79.640625 56 84.28125 50.015625 
Q 88.921875 44.046875 88.921875 33.015625 
L 88.921875 0 
L 79.890625 0 
L 79.890625 32.71875 
Q 79.890625 40.578125 77.09375 44.375 
Q 74.3125 48.1875 68.609375 48.1875 
Q 61.625 48.1875 57.5625 43.546875 
Q 53.515625 38.921875 53.515625 30.90625 
L 53.515625 0 
L 44.484375 0 
L 44.484375 32.71875 
Q 44.484375 40.625 41.703125 44.40625 
Q 38.921875 48.1875 33.109375 48.1875 
Q 26.21875 48.1875 22.15625 43.53125 
Q 18.109375 38.875 18.109375 30.90625 
L 18.109375 0 
L 9.078125 0 
L 9.078125 54.6875 
L 18.109375 54.6875 
L 18.109375 46.1875 
Q 21.1875 51.21875 25.484375 53.609375 
Q 29.78125 56 35.6875 56 
Q 41.65625 56 45.828125 52.96875 
Q 50 49.953125 52 44.1875 
z
" id="DejaVuSans-109"/>
      <path d="M 8.5 21.578125 
L 8.5 54.6875 
L 17.484375 54.6875 
L 17.484375 21.921875 
Q 17.484375 14.15625 20.5 10.265625 
Q 23.53125 6.390625 29.59375 6.390625 
Q 36.859375 6.390625 41.078125 11.03125 
Q 45.3125 15.671875 45.3125 23.6875 
L 45.3125 54.6875 
L 54.296875 54.6875 
L 54.296875 0 
L 45.3125 0 
L 45.3125 8.40625 
Q 42.046875 3.421875 37.71875 1 
Q 33.40625 -1.421875 27.6875 -1.421875 
Q 18.265625 -1.421875 13.375 4.4375 
Q 8.5 10.296875 8.5 21.578125 
z
M 31.109375 56 
z
" id="DejaVuSans-117"/>
      <path d="M 54.890625 33.015625 
L 54.890625 0 
L 45.90625 0 
L 45.90625 32.71875 
Q 45.90625 40.484375 42.875 44.328125 
Q 39.84375 48.1875 33.796875 48.1875 
Q 26.515625 48.1875 22.3125 43.546875 
Q 18.109375 38.921875 18.109375 30.90625 
L 18.109375 0 
L 9.078125 0 
L 9.078125 54.6875 
L 18.109375 54.6875 
L 18.109375 46.1875 
Q 21.34375 51.125 25.703125 53.5625 
Q 30.078125 56 35.796875 56 
Q 45.21875 56 50.046875 50.171875 
Q 54.890625 44.34375 54.890625 33.015625 
z
" id="DejaVuSans-110"/>
      <path d="M 18.3125 70.21875 
L 18.3125 54.6875 
L 36.8125 54.6875 
L 36.8125 47.703125 
L 18.3125 47.703125 
L 18.3125 18.015625 
Q 18.3125 11.328125 20.140625 9.421875 
Q 21.96875 7.515625 27.59375 7.515625 
L 36.8125 7.515625 
L 36.8125 0 
L 27.59375 0 
Q 17.1875 0 13.234375 3.875 
Q 9.28125 7.765625 9.28125 18.015625 
L 9.28125 47.703125 
L 2.6875 47.703125 
L 2.6875 54.6875 
L 9.28125 54.6875 
L 9.28125 70.21875 
z
" id="DejaVuSans-116"/>
      <path d="M 37.109375 75.984375 
L 37.109375 68.5 
L 28.515625 68.5 
Q 23.6875 68.5 21.796875 66.546875 
Q 19.921875 64.59375 19.921875 59.515625 
L 19.921875 54.6875 
L 34.71875 54.6875 
L 34.71875 47.703125 
L 19.921875 47.703125 
L 19.921875 0 
L 10.890625 0 
L 10.890625 47.703125 
L 2.296875 47.703125 
L 2.296875 54.6875 
L 10.890625 54.6875 
L 10.890625 58.5 
Q 10.890625 67.625 15.140625 71.796875 
Q 19.390625 75.984375 28.609375 75.984375 
z
" id="DejaVuSans-102"/>
     </defs>
     <g transform="translate(356.012148 500.807328)scale(0.143 -0.143)">
      <use xlink:href="#DejaVuSans-65"/>
      <use x="68.408203" xlink:href="#DejaVuSans-109"/>
      <use x="165.820312" xlink:href="#DejaVuSans-111"/>
      <use x="227.001953" xlink:href="#DejaVuSans-117"/>
      <use x="290.380859" xlink:href="#DejaVuSans-110"/>
      <use x="353.759766" xlink:href="#DejaVuSans-116"/>
      <use x="392.96875" xlink:href="#DejaVuSans-32"/>
      <use x="424.755859" xlink:href="#DejaVuSans-111"/>
      <use x="485.9375" xlink:href="#DejaVuSans-102"/>
      <use x="521.142578" xlink:href="#DejaVuSans-32"/>
      <use x="552.929688" xlink:href="#DejaVuSans-104"/>
      <use x="616.308594" xlink:href="#DejaVuSans-111"/>
      <use x="677.490234" xlink:href="#DejaVuSans-112"/>
      <use x="740.966797" xlink:href="#DejaVuSans-115"/>
     </g>
    </g>
   </g>
   <g id="matplotlib.axis_2">
    <g id="ytick_1">
     <g id="line2d_3">
      <defs>
       <path d="M 0 0 
L -3.5 0 
" id="m9f420dff65" style="stroke:#000000;stroke-width:1.3;"/>
      </defs>
      <g>
       <use style="stroke:#000000;stroke-width:1.3;" x="89.95" xlink:href="#m9f420dff65" y="460.76"/>
      </g>
     </g>
     <g id="text_4">
      <!-- 0 -->
      <defs>
       <path d="M 31.78125 66.40625 
Q 24.171875 66.40625 20.328125 58.90625 
Q 16.5 51.421875 16.5 36.375 
Q 16.5 21.390625 20.328125 13.890625 
Q 24.171875 6.390625 31.78125 6.390625 
Q 39.453125 6.390625 43.28125 13.890625 
Q 47.125 21.390625 47.125 36.375 
Q 47.125 51.421875 43.28125 58.90625 
Q 39.453125 66.40625 31.78125 66.40625 
z
M 31.78125 74.21875 
Q 44.046875 74.21875 50.515625 64.515625 
Q 56.984375 54.828125 56.984375 36.375 
Q 56.984375 17.96875 50.515625 8.265625 
Q 44.046875 -1.421875 31.78125 -1.421875 
Q 19.53125 -1.421875 13.0625 8.265625 
Q 6.59375 17.96875 6.59375 36.375 
Q 6.59375 54.828125 13.0625 64.515625 
Q 19.53125 74.21875 31.78125 74.21875 
z
" id="DejaVuSans-48"/>
      </defs>
      <g transform="translate(69.07875 465.698984)scale(0.13 -0.13)">
       <use xlink:href="#DejaVuSans-48"/>
      </g>
     </g>
    </g>
    <g id="ytick_2">
     <g id="line2d_4">
      <g>
       <use style="stroke:#000000;stroke-width:1.3;" x="89.95" xlink:href="#m9f420dff65" y="371.565974"/>
      </g>
     </g>
     <g id="text_5">
      <!-- 50000 -->
      <defs>
       <path d="M 10.796875 72.90625 
L 49.515625 72.90625 
L 49.515625 64.59375 
L 19.828125 64.59375 
L 19.828125 46.734375 
Q 21.96875 47.46875 24.109375 47.828125 
Q 26.265625 48.1875 28.421875 48.1875 
Q 40.625 48.1875 47.75 41.5 
Q 54.890625 34.8125 54.890625 23.390625 
Q 54.890625 11.625 47.5625 5.09375 
Q 40.234375 -1.421875 26.90625 -1.421875 
Q 22.3125 -1.421875 17.546875 -0.640625 
Q 12.796875 0.140625 7.71875 1.703125 
L 7.71875 11.625 
Q 12.109375 9.234375 16.796875 8.0625 
Q 21.484375 6.890625 26.703125 6.890625 
Q 35.15625 6.890625 40.078125 11.328125 
Q 45.015625 15.765625 45.015625 23.390625 
Q 45.015625 31 40.078125 35.4375 
Q 35.15625 39.890625 26.703125 39.890625 
Q 22.75 39.890625 18.8125 39.015625 
Q 14.890625 38.140625 10.796875 36.28125 
z
" id="DejaVuSans-53"/>
      </defs>
      <g transform="translate(35.99375 376.504958)scale(0.13 -0.13)">
       <use xlink:href="#DejaVuSans-53"/>
       <use x="63.623047" xlink:href="#DejaVuSans-48"/>
       <use x="127.246094" xlink:href="#DejaVuSans-48"/>
       <use x="190.869141" xlink:href="#DejaVuSans-48"/>
       <use x="254.492188" xlink:href="#DejaVuSans-48"/>
      </g>
     </g>
    </g>
    <g id="ytick_3">
     <g id="line2d_5">
      <g>
       <use style="stroke:#000000;stroke-width:1.3;" x="89.95" xlink:href="#m9f420dff65" y="282.371948"/>
      </g>
     </g>
     <g id="text_6">
      <!-- 100000 -->
      <g transform="translate(27.7225 287.310932)scale(0.13 -0.13)">
       <use xlink:href="#DejaVuSans-49"/>
       <use x="63.623047" xlink:href="#DejaVuSans-48"/>
       <use x="127.246094" xlink:href="#DejaVuSans-48"/>
       <use x="190.869141" xlink:href="#DejaVuSans-48"/>
       <use x="254.492188" xlink:href="#DejaVuSans-48"/>
       <use x="318.115234" xlink:href="#DejaVuSans-48"/>
      </g>
     </g>
    </g>
    <g id="ytick_4">
     <g id="line2d_6">
      <g>
       <use style="stroke:#000000;stroke-width:1.3;" x="89.95" xlink:href="#m9f420dff65" y="193.177921"/>
      </g>
     </g>
     <g id="text_7">
      <!-- 150000 -->
      <g transform="translate(27.7225 198.116906)scale(0.13 -0.13)">
       <use xlink:href="#DejaVuSans-49"/>
       <use x="63.623047" xlink:href="#DejaVuSans-53"/>
       <use x="127.246094" xlink:href="#DejaVuSans-48"/>
       <use x="190.869141" xlink:href="#DejaVuSans-48"/>
       <use x="254.492188" xlink:href="#DejaVuSans-48"/>
       <use x="318.115234" xlink:href="#DejaVuSans-48"/>
      </g>
     </g>
    </g>
    <g id="ytick_5">
     <g id="line2d_7">
      <g>
       <use style="stroke:#000000;stroke-width:1.3;" x="89.95" xlink:href="#m9f420dff65" y="103.983895"/>
      </g>
     </g>
     <g id="text_8">
      <!-- 200000 -->
      <g transform="translate(27.7225 108.92288)scale(0.13 -0.13)">
       <use xlink:href="#DejaVuSans-50"/>
       <use x="63.623047" xlink:href="#DejaVuSans-48"/>
       <use x="127.246094" xlink:href="#DejaVuSans-48"/>
       <use x="190.869141" xlink:href="#DejaVuSans-48"/>
       <use x="254.492188" xlink:href="#DejaVuSans-48"/>
       <use x="318.115234" xlink:href="#DejaVuSans-48"/>
      </g>
     </g>
    </g>
    <g id="text_9">
     <!-- Time from request to full transfer in milliseconds -->
     <defs>
      <path d="M -0.296875 72.90625 
L 61.375 72.90625 
L 61.375 64.59375 
L 35.5 64.59375 
L 35.5 0 
L 25.59375 0 
L 25.59375 64.59375 
L -0.296875 64.59375 
z
" id="DejaVuSans-84"/>
      <path d="M 9.421875 54.6875 
L 18.40625 54.6875 
L 18.40625 0 
L 9.421875 0 
z
M 9.421875 75.984375 
L 18.40625 75.984375 
L 18.40625 64.59375 
L 9.421875 64.59375 
z
" id="DejaVuSans-105"/>
      <path d="M 56.203125 29.59375 
L 56.203125 25.203125 
L 14.890625 25.203125 
Q 15.484375 15.921875 20.484375 11.0625 
Q 25.484375 6.203125 34.421875 6.203125 
Q 39.59375 6.203125 44.453125 7.46875 
Q 49.3125 8.734375 54.109375 11.28125 
L 54.109375 2.78125 
Q 49.265625 0.734375 44.1875 -0.34375 
Q 39.109375 -1.421875 33.890625 -1.421875 
Q 20.796875 -1.421875 13.15625 6.1875 
Q 5.515625 13.8125 5.515625 26.8125 
Q 5.515625 40.234375 12.765625 48.109375 
Q 20.015625 56 32.328125 56 
Q 43.359375 56 49.78125 48.890625 
Q 56.203125 41.796875 56.203125 29.59375 
z
M 47.21875 32.234375 
Q 47.125 39.59375 43.09375 43.984375 
Q 39.0625 48.390625 32.421875 48.390625 
Q 24.90625 48.390625 20.390625 44.140625 
Q 15.875 39.890625 15.1875 32.171875 
z
" id="DejaVuSans-101"/>
      <path d="M 41.109375 46.296875 
Q 39.59375 47.171875 37.8125 47.578125 
Q 36.03125 48 33.890625 48 
Q 26.265625 48 22.1875 43.046875 
Q 18.109375 38.09375 18.109375 28.8125 
L 18.109375 0 
L 9.078125 0 
L 9.078125 54.6875 
L 18.109375 54.6875 
L 18.109375 46.1875 
Q 20.953125 51.171875 25.484375 53.578125 
Q 30.03125 56 36.53125 56 
Q 37.453125 56 38.578125 55.875 
Q 39.703125 55.765625 41.0625 55.515625 
z
" id="DejaVuSans-114"/>
      <path d="M 14.796875 27.296875 
Q 14.796875 17.390625 18.875 11.75 
Q 22.953125 6.109375 30.078125 6.109375 
Q 37.203125 6.109375 41.296875 11.75 
Q 45.40625 17.390625 45.40625 27.296875 
Q 45.40625 37.203125 41.296875 42.84375 
Q 37.203125 48.484375 30.078125 48.484375 
Q 22.953125 48.484375 18.875 42.84375 
Q 14.796875 37.203125 14.796875 27.296875 
z
M 45.40625 8.203125 
Q 42.578125 3.328125 38.25 0.953125 
Q 33.9375 -1.421875 27.875 -1.421875 
Q 17.96875 -1.421875 11.734375 6.484375 
Q 5.515625 14.40625 5.515625 27.296875 
Q 5.515625 40.1875 11.734375 48.09375 
Q 17.96875 56 27.875 56 
Q 33.9375 56 38.25 53.625 
Q 42.578125 51.265625 45.40625 46.390625 
L 45.40625 54.6875 
L 54.390625 54.6875 
L 54.390625 -20.796875 
L 45.40625 -20.796875 
z
" id="DejaVuSans-113"/>
      <path d="M 9.421875 75.984375 
L 18.40625 75.984375 
L 18.40625 0 
L 9.421875 0 
z
" id="DejaVuSans-108"/>
      <path d="M 34.28125 27.484375 
Q 23.390625 27.484375 19.1875 25 
Q 14.984375 22.515625 14.984375 16.5 
Q 14.984375 11.71875 18.140625 8.90625 
Q 21.296875 6.109375 26.703125 6.109375 
Q 34.1875 6.109375 38.703125 11.40625 
Q 43.21875 16.703125 43.21875 25.484375 
L 43.21875 27.484375 
z
M 52.203125 31.203125 
L 52.203125 0 
L 43.21875 0 
L 43.21875 8.296875 
Q 40.140625 3.328125 35.546875 0.953125 
Q 30.953125 -1.421875 24.3125 -1.421875 
Q 15.921875 -1.421875 10.953125 3.296875 
Q 6 8.015625 6 15.921875 
Q 6 25.140625 12.171875 29.828125 
Q 18.359375 34.515625 30.609375 34.515625 
L 43.21875 34.515625 
L 43.21875 35.40625 
Q 43.21875 41.609375 39.140625 45 
Q 35.0625 48.390625 27.6875 48.390625 
Q 23 48.390625 18.546875 47.265625 
Q 14.109375 46.140625 10.015625 43.890625 
L 10.015625 52.203125 
Q 14.9375 54.109375 19.578125 55.046875 
Q 24.21875 56 28.609375 56 
Q 40.484375 56 46.34375 49.84375 
Q 52.203125 43.703125 52.203125 31.203125 
z
" id="DejaVuSans-97"/>
      <path d="M 48.78125 52.59375 
L 48.78125 44.1875 
Q 44.96875 46.296875 41.140625 47.34375 
Q 37.3125 48.390625 33.40625 48.390625 
Q 24.65625 48.390625 19.8125 42.84375 
Q 14.984375 37.3125 14.984375 27.296875 
Q 14.984375 17.28125 19.8125 11.734375 
Q 24.65625 6.203125 33.40625 6.203125 
Q 37.3125 6.203125 41.140625 7.25 
Q 44.96875 8.296875 48.78125 10.40625 
L 48.78125 2.09375 
Q 45.015625 0.34375 40.984375 -0.53125 
Q 36.96875 -1.421875 32.421875 -1.421875 
Q 20.0625 -1.421875 12.78125 6.34375 
Q 5.515625 14.109375 5.515625 27.296875 
Q 5.515625 40.671875 12.859375 48.328125 
Q 20.21875 56 33.015625 56 
Q 37.15625 56 41.109375 55.140625 
Q 45.0625 54.296875 48.78125 52.59375 
z
" id="DejaVuSans-99"/>
      <path d="M 45.40625 46.390625 
L 45.40625 75.984375 
L 54.390625 75.984375 
L 54.390625 0 
L 45.40625 0 
L 45.40625 8.203125 
Q 42.578125 3.328125 38.25 0.953125 
Q 33.9375 -1.421875 27.875 -1.421875 
Q 17.96875 -1.421875 11.734375 6.484375 
Q 5.515625 14.40625 5.515625 27.296875 
Q 5.515625 40.1875 11.734375 48.09375 
Q 17.96875 56 27.875 56 
Q 33.9375 56 38.25 53.625 
Q 42.578125 51.265625 45.40625 46.390625 
z
M 14.796875 27.296875 
Q 14.796875 17.390625 18.875 11.75 
Q 22.953125 6.109375 30.078125 6.109375 
Q 37.203125 6.109375 41.296875 11.75 
Q 45.40625 17.390625 45.40625 27.296875 
Q 45.40625 37.203125 41.296875 42.84375 
Q 37.203125 48.484375 30.078125 48.484375 
Q 22.953125 48.484375 18.875 42.84375 
Q 14.796875 37.203125 14.796875 27.296875 
z
" id="DejaVuSans-100"/>
     </defs>
     <g transform="translate(20.748547 427.728492)rotate(-90)scale(0.143 -0.143)">
      <use xlink:href="#DejaVuSans-84"/>
      <use x="61.037109" xlink:href="#DejaVuSans-105"/>
      <use x="88.820312" xlink:href="#DejaVuSans-109"/>
      <use x="186.232422" xlink:href="#DejaVuSans-101"/>
      <use x="247.755859" xlink:href="#DejaVuSans-32"/>
      <use x="279.542969" xlink:href="#DejaVuSans-102"/>
      <use x="314.748047" xlink:href="#DejaVuSans-114"/>
      <use x="355.830078" xlink:href="#DejaVuSans-111"/>
      <use x="417.011719" xlink:href="#DejaVuSans-109"/>
      <use x="514.423828" xlink:href="#DejaVuSans-32"/>
      <use x="546.210938" xlink:href="#DejaVuSans-114"/>
      <use x="587.292969" xlink:href="#DejaVuSans-101"/>
      <use x="648.816406" xlink:href="#DejaVuSans-113"/>
      <use x="712.292969" xlink:href="#DejaVuSans-117"/>
      <use x="775.671875" xlink:href="#DejaVuSans-101"/>
      <use x="837.195312" xlink:href="#DejaVuSans-115"/>
      <use x="889.294922" xlink:href="#DejaVuSans-116"/>
      <use x="928.503906" xlink:href="#DejaVuSans-32"/>
      <use x="960.291016" xlink:href="#DejaVuSans-116"/>
      <use x="999.5" xlink:href="#DejaVuSans-111"/>
      <use x="1060.681641" xlink:href="#DejaVuSans-32"/>
      <use x="1092.46875" xlink:href="#DejaVuSans-102"/>
      <use x="1127.673828" xlink:href="#DejaVuSans-117"/>
      <use x="1191.052734" xlink:href="#DejaVuSans-108"/>
      <use x="1218.835938" xlink:href="#DejaVuSans-108"/>
      <use x="1246.619141" xlink:href="#DejaVuSans-32"/>
      <use x="1278.40625" xlink:href="#DejaVuSans-116"/>
      <use x="1317.615234" xlink:href="#DejaVuSans-114"/>
      <use x="1358.728516" xlink:href="#DejaVuSans-97"/>
      <use x="1420.007812" xlink:href="#DejaVuSans-110"/>
      <use x="1483.386719" xlink:href="#DejaVuSans-115"/>
      <use x="1535.486328" xlink:href="#DejaVuSans-102"/>
      <use x="1570.691406" xlink:href="#DejaVuSans-101"/>
      <use x="1632.214844" xlink:href="#DejaVuSans-114"/>
      <use x="1673.328125" xlink:href="#DejaVuSans-32"/>
      <use x="1705.115234" xlink:href="#DejaVuSans-105"/>
      <use x="1732.898438" xlink:href="#DejaVuSans-110"/>
      <use x="1796.277344" xlink:href="#DejaVuSans-32"/>
      <use x="1828.064453" xlink:href="#DejaVuSans-109"/>
      <use x="1925.476562" xlink:href="#DejaVuSans-105"/>
      <use x="1953.259766" xlink:href="#DejaVuSans-108"/>
      <use x="1981.042969" xlink:href="#DejaVuSans-108"/>
      <use x="2008.826172" xlink:href="#DejaVuSans-105"/>
      <use x="2036.609375" xlink:href="#DejaVuSans-115"/>
      <use x="2088.708984" xlink:href="#DejaVuSans-101"/>
      <use x="2150.232422" xlink:href="#DejaVuSans-99"/>
      <use x="2205.212891" xlink:href="#DejaVuSans-111"/>
      <use x="2266.394531" xlink:href="#DejaVuSans-110"/>
      <use x="2329.773438" xlink:href="#DejaVuSans-100"/>
      <use x="2393.25" xlink:href="#DejaVuSans-115"/>
     </g>
    </g>
   </g>
   <g id="LineCollection_1">
    <path clip-path="url(#p64649ad329)" d="M 179.702834 394.753584 
L 179.702834 384.402047 
" style="fill:none;stroke:#000000;stroke-width:2.275;"/>
    <path clip-path="url(#p64649ad329)" d="M 524.906043 286.2219 
L 524.906043 240.422588 
" style="fill:none;stroke:#000000;stroke-width:2.275;"/>
   </g>
   <g id="LineCollection_2">
    <path clip-path="url(#p64649ad329)" d="M 300.523957 373.102842 
L 300.523957 355.429114 
" style="fill:none;stroke:#000000;stroke-width:2.275;"/>
    <path clip-path="url(#p64649ad329)" d="M 645.727166 216.274523 
L 645.727166 64.820952 
" style="fill:none;stroke:#000000;stroke-width:2.275;"/>
   </g>
   <g id="LineCollection_3">
    <path clip-path="url(#p64649ad329)" d="M 300.523957 455.365443 
L 300.523957 453.833294 
" style="fill:none;stroke:#000000;stroke-width:2.275;"/>
    <path clip-path="url(#p64649ad329)" d="M 645.727166 437.773573 
L 645.727166 422.637103 
" style="fill:none;stroke:#000000;stroke-width:2.275;"/>
   </g>
   <g id="patch_9">
    <path d="M 89.95 460.76 
L 89.95 45.024 
" style="fill:none;stroke:#000000;stroke-linecap:square;stroke-linejoin:miter;stroke-width:0.8;"/>
   </g>
   <g id="patch_10">
    <path d="M 735.48 460.76 
L 735.48 45.024 
" style="fill:none;stroke:#000000;stroke-linecap:square;stroke-linejoin:miter;stroke-width:0.8;"/>
   </g>
   <g id="patch_11">
    <path d="M 89.95 460.76 
L 735.48 460.76 
" style="fill:none;stroke:#000000;stroke-linecap:square;stroke-linejoin:miter;stroke-width:0.8;"/>
   </g>
   <g id="patch_12">
    <path d="M 89.95 45.024 
L 735.48 45.024 
" style="fill:none;stroke:#000000;stroke-linecap:square;stroke-linejoin:miter;stroke-width:0.8;"/>
   </g>
   <g id="text_10">
    <!-- Streaming vs Non Streaming -->
    <defs>
     <path d="M 53.515625 70.515625 
L 53.515625 60.890625 
Q 47.90625 63.578125 42.921875 64.890625 
Q 37.9375 66.21875 33.296875 66.21875 
Q 25.25 66.21875 20.875 63.09375 
Q 16.5 59.96875 16.5 54.203125 
Q 16.5 49.359375 19.40625 46.890625 
Q 22.3125 44.4375 30.421875 42.921875 
L 36.375 41.703125 
Q 47.40625 39.59375 52.65625 34.296875 
Q 57.90625 29 57.90625 20.125 
Q 57.90625 9.515625 50.796875 4.046875 
Q 43.703125 -1.421875 29.984375 -1.421875 
Q 24.8125 -1.421875 18.96875 -0.25 
Q 13.140625 0.921875 6.890625 3.21875 
L 6.890625 13.375 
Q 12.890625 10.015625 18.65625 8.296875 
Q 24.421875 6.59375 29.984375 6.59375 
Q 38.421875 6.59375 43.015625 9.90625 
Q 47.609375 13.234375 47.609375 19.390625 
Q 47.609375 24.75 44.3125 27.78125 
Q 41.015625 30.8125 33.5 32.328125 
L 27.484375 33.5 
Q 16.453125 35.6875 11.515625 40.375 
Q 6.59375 45.0625 6.59375 53.421875 
Q 6.59375 63.09375 13.40625 68.65625 
Q 20.21875 74.21875 32.171875 74.21875 
Q 37.3125 74.21875 42.625 73.28125 
Q 47.953125 72.359375 53.515625 70.515625 
z
" id="DejaVuSans-83"/>
     <path d="M 45.40625 27.984375 
Q 45.40625 37.75 41.375 43.109375 
Q 37.359375 48.484375 30.078125 48.484375 
Q 22.859375 48.484375 18.828125 43.109375 
Q 14.796875 37.75 14.796875 27.984375 
Q 14.796875 18.265625 18.828125 12.890625 
Q 22.859375 7.515625 30.078125 7.515625 
Q 37.359375 7.515625 41.375 12.890625 
Q 45.40625 18.265625 45.40625 27.984375 
z
M 54.390625 6.78125 
Q 54.390625 -7.171875 48.1875 -13.984375 
Q 42 -20.796875 29.203125 -20.796875 
Q 24.46875 -20.796875 20.265625 -20.09375 
Q 16.0625 -19.390625 12.109375 -17.921875 
L 12.109375 -9.1875 
Q 16.0625 -11.328125 19.921875 -12.34375 
Q 23.78125 -13.375 27.78125 -13.375 
Q 36.625 -13.375 41.015625 -8.765625 
Q 45.40625 -4.15625 45.40625 5.171875 
L 45.40625 9.625 
Q 42.625 4.78125 38.28125 2.390625 
Q 33.9375 0 27.875 0 
Q 17.828125 0 11.671875 7.65625 
Q 5.515625 15.328125 5.515625 27.984375 
Q 5.515625 40.671875 11.671875 48.328125 
Q 17.828125 56 27.875 56 
Q 33.9375 56 38.28125 53.609375 
Q 42.625 51.21875 45.40625 46.390625 
L 45.40625 54.6875 
L 54.390625 54.6875 
z
" id="DejaVuSans-103"/>
     <path d="M 2.984375 54.6875 
L 12.5 54.6875 
L 29.59375 8.796875 
L 46.6875 54.6875 
L 56.203125 54.6875 
L 35.6875 0 
L 23.484375 0 
z
" id="DejaVuSans-118"/>
     <path d="M 9.8125 72.90625 
L 23.09375 72.90625 
L 55.421875 11.921875 
L 55.421875 72.90625 
L 64.984375 72.90625 
L 64.984375 0 
L 51.703125 0 
L 19.390625 60.984375 
L 19.390625 0 
L 9.8125 0 
z
" id="DejaVuSans-78"/>
    </defs>
    <g transform="translate(300.1415 21.555413)scale(0.156 -0.156)">
     <use xlink:href="#DejaVuSans-83"/>
     <use x="63.476562" xlink:href="#DejaVuSans-116"/>
     <use x="102.685547" xlink:href="#DejaVuSans-114"/>
     <use x="143.767578" xlink:href="#DejaVuSans-101"/>
     <use x="205.291016" xlink:href="#DejaVuSans-97"/>
     <use x="266.570312" xlink:href="#DejaVuSans-109"/>
     <use x="363.982422" xlink:href="#DejaVuSans-105"/>
     <use x="391.765625" xlink:href="#DejaVuSans-110"/>
     <use x="455.144531" xlink:href="#DejaVuSans-103"/>
     <use x="518.621094" xlink:href="#DejaVuSans-32"/>
     <use x="550.408203" xlink:href="#DejaVuSans-118"/>
     <use x="609.587891" xlink:href="#DejaVuSans-115"/>
     <use x="661.6875" xlink:href="#DejaVuSans-32"/>
     <use x="693.474609" xlink:href="#DejaVuSans-78"/>
     <use x="768.279297" xlink:href="#DejaVuSans-111"/>
     <use x="829.460938" xlink:href="#DejaVuSans-110"/>
     <use x="892.839844" xlink:href="#DejaVuSans-32"/>
     <use x="924.626953" xlink:href="#DejaVuSans-83"/>
     <use x="988.103516" xlink:href="#DejaVuSans-116"/>
     <use x="1027.3125" xlink:href="#DejaVuSans-114"/>
     <use x="1068.394531" xlink:href="#DejaVuSans-101"/>
     <use x="1129.917969" xlink:href="#DejaVuSans-97"/>
     <use x="1191.197266" xlink:href="#DejaVuSans-109"/>
     <use x="1288.609375" xlink:href="#DejaVuSans-105"/>
     <use x="1316.392578" xlink:href="#DejaVuSans-110"/>
     <use x="1379.771484" xlink:href="#DejaVuSans-103"/>
    </g>
    <!--  6.29 MB audio file duration 4 min 34 seconds (Mean over 5 runs) -->
    <defs>
     <path d="M 33.015625 40.375 
Q 26.375 40.375 22.484375 35.828125 
Q 18.609375 31.296875 18.609375 23.390625 
Q 18.609375 15.53125 22.484375 10.953125 
Q 26.375 6.390625 33.015625 6.390625 
Q 39.65625 6.390625 43.53125 10.953125 
Q 47.40625 15.53125 47.40625 23.390625 
Q 47.40625 31.296875 43.53125 35.828125 
Q 39.65625 40.375 33.015625 40.375 
z
M 52.59375 71.296875 
L 52.59375 62.3125 
Q 48.875 64.0625 45.09375 64.984375 
Q 41.3125 65.921875 37.59375 65.921875 
Q 27.828125 65.921875 22.671875 59.328125 
Q 17.53125 52.734375 16.796875 39.40625 
Q 19.671875 43.65625 24.015625 45.921875 
Q 28.375 48.1875 33.59375 48.1875 
Q 44.578125 48.1875 50.953125 41.515625 
Q 57.328125 34.859375 57.328125 23.390625 
Q 57.328125 12.15625 50.6875 5.359375 
Q 44.046875 -1.421875 33.015625 -1.421875 
Q 20.359375 -1.421875 13.671875 8.265625 
Q 6.984375 17.96875 6.984375 36.375 
Q 6.984375 53.65625 15.1875 63.9375 
Q 23.390625 74.21875 37.203125 74.21875 
Q 40.921875 74.21875 44.703125 73.484375 
Q 48.484375 72.75 52.59375 71.296875 
z
" id="DejaVuSans-54"/>
     <path d="M 10.6875 12.40625 
L 21 12.40625 
L 21 0 
L 10.6875 0 
z
" id="DejaVuSans-46"/>
     <path d="M 10.984375 1.515625 
L 10.984375 10.5 
Q 14.703125 8.734375 18.5 7.8125 
Q 22.3125 6.890625 25.984375 6.890625 
Q 35.75 6.890625 40.890625 13.453125 
Q 46.046875 20.015625 46.78125 33.40625 
Q 43.953125 29.203125 39.59375 26.953125 
Q 35.25 24.703125 29.984375 24.703125 
Q 19.046875 24.703125 12.671875 31.3125 
Q 6.296875 37.9375 6.296875 49.421875 
Q 6.296875 60.640625 12.9375 67.421875 
Q 19.578125 74.21875 30.609375 74.21875 
Q 43.265625 74.21875 49.921875 64.515625 
Q 56.59375 54.828125 56.59375 36.375 
Q 56.59375 19.140625 48.40625 8.859375 
Q 40.234375 -1.421875 26.421875 -1.421875 
Q 22.703125 -1.421875 18.890625 -0.6875 
Q 15.09375 0.046875 10.984375 1.515625 
z
M 30.609375 32.421875 
Q 37.25 32.421875 41.125 36.953125 
Q 45.015625 41.5 45.015625 49.421875 
Q 45.015625 57.28125 41.125 61.84375 
Q 37.25 66.40625 30.609375 66.40625 
Q 23.96875 66.40625 20.09375 61.84375 
Q 16.21875 57.28125 16.21875 49.421875 
Q 16.21875 41.5 20.09375 36.953125 
Q 23.96875 32.421875 30.609375 32.421875 
z
" id="DejaVuSans-57"/>
     <path d="M 9.8125 72.90625 
L 24.515625 72.90625 
L 43.109375 23.296875 
L 61.8125 72.90625 
L 76.515625 72.90625 
L 76.515625 0 
L 66.890625 0 
L 66.890625 64.015625 
L 48.09375 14.015625 
L 38.1875 14.015625 
L 19.390625 64.015625 
L 19.390625 0 
L 9.8125 0 
z
" id="DejaVuSans-77"/>
     <path d="M 19.671875 34.8125 
L 19.671875 8.109375 
L 35.5 8.109375 
Q 43.453125 8.109375 47.28125 11.40625 
Q 51.125 14.703125 51.125 21.484375 
Q 51.125 28.328125 47.28125 31.5625 
Q 43.453125 34.8125 35.5 34.8125 
z
M 19.671875 64.796875 
L 19.671875 42.828125 
L 34.28125 42.828125 
Q 41.5 42.828125 45.03125 45.53125 
Q 48.578125 48.25 48.578125 53.8125 
Q 48.578125 59.328125 45.03125 62.0625 
Q 41.5 64.796875 34.28125 64.796875 
z
M 9.8125 72.90625 
L 35.015625 72.90625 
Q 46.296875 72.90625 52.390625 68.21875 
Q 58.5 63.53125 58.5 54.890625 
Q 58.5 48.1875 55.375 44.234375 
Q 52.25 40.28125 46.1875 39.3125 
Q 53.46875 37.75 57.5 32.78125 
Q 61.53125 27.828125 61.53125 20.40625 
Q 61.53125 10.640625 54.890625 5.3125 
Q 48.25 0 35.984375 0 
L 9.8125 0 
z
" id="DejaVuSans-66"/>
     <path d="M 37.796875 64.3125 
L 12.890625 25.390625 
L 37.796875 25.390625 
z
M 35.203125 72.90625 
L 47.609375 72.90625 
L 47.609375 25.390625 
L 58.015625 25.390625 
L 58.015625 17.1875 
L 47.609375 17.1875 
L 47.609375 0 
L 37.796875 0 
L 37.796875 17.1875 
L 4.890625 17.1875 
L 4.890625 26.703125 
z
" id="DejaVuSans-52"/>
     <path d="M 40.578125 39.3125 
Q 47.65625 37.796875 51.625 33 
Q 55.609375 28.21875 55.609375 21.1875 
Q 55.609375 10.40625 48.1875 4.484375 
Q 40.765625 -1.421875 27.09375 -1.421875 
Q 22.515625 -1.421875 17.65625 -0.515625 
Q 12.796875 0.390625 7.625 2.203125 
L 7.625 11.71875 
Q 11.71875 9.328125 16.59375 8.109375 
Q 21.484375 6.890625 26.8125 6.890625 
Q 36.078125 6.890625 40.9375 10.546875 
Q 45.796875 14.203125 45.796875 21.1875 
Q 45.796875 27.640625 41.28125 31.265625 
Q 36.765625 34.90625 28.71875 34.90625 
L 20.21875 34.90625 
L 20.21875 43.015625 
L 29.109375 43.015625 
Q 36.375 43.015625 40.234375 45.921875 
Q 44.09375 48.828125 44.09375 54.296875 
Q 44.09375 59.90625 40.109375 62.90625 
Q 36.140625 65.921875 28.71875 65.921875 
Q 24.65625 65.921875 20.015625 65.03125 
Q 15.375 64.15625 9.8125 62.3125 
L 9.8125 71.09375 
Q 15.4375 72.65625 20.34375 73.4375 
Q 25.25 74.21875 29.59375 74.21875 
Q 40.828125 74.21875 47.359375 69.109375 
Q 53.90625 64.015625 53.90625 55.328125 
Q 53.90625 49.265625 50.4375 45.09375 
Q 46.96875 40.921875 40.578125 39.3125 
z
" id="DejaVuSans-51"/>
     <path d="M 31 75.875 
Q 24.46875 64.65625 21.28125 53.65625 
Q 18.109375 42.671875 18.109375 31.390625 
Q 18.109375 20.125 21.3125 9.0625 
Q 24.515625 -2 31 -13.1875 
L 23.1875 -13.1875 
Q 15.875 -1.703125 12.234375 9.375 
Q 8.59375 20.453125 8.59375 31.390625 
Q 8.59375 42.28125 12.203125 53.3125 
Q 15.828125 64.359375 23.1875 75.875 
z
" id="DejaVuSans-40"/>
     <path d="M 8.015625 75.875 
L 15.828125 75.875 
Q 23.140625 64.359375 26.78125 53.3125 
Q 30.421875 42.28125 30.421875 31.390625 
Q 30.421875 20.453125 26.78125 9.375 
Q 23.140625 -1.703125 15.828125 -13.1875 
L 8.015625 -13.1875 
Q 14.5 -2 17.703125 9.0625 
Q 20.90625 20.125 20.90625 31.390625 
Q 20.90625 42.671875 17.703125 53.65625 
Q 14.5 64.65625 8.015625 75.875 
z
" id="DejaVuSans-41"/>
    </defs>
    <g transform="translate(156.392375 39.024)scale(0.156 -0.156)">
     <use xlink:href="#DejaVuSans-32"/>
     <use x="31.787109" xlink:href="#DejaVuSans-54"/>
     <use x="95.410156" xlink:href="#DejaVuSans-46"/>
     <use x="127.197266" xlink:href="#DejaVuSans-50"/>
     <use x="190.820312" xlink:href="#DejaVuSans-57"/>
     <use x="254.443359" xlink:href="#DejaVuSans-32"/>
     <use x="286.230469" xlink:href="#DejaVuSans-77"/>
     <use x="372.509766" xlink:href="#DejaVuSans-66"/>
     <use x="441.113281" xlink:href="#DejaVuSans-32"/>
     <use x="472.900391" xlink:href="#DejaVuSans-97"/>
     <use x="534.179688" xlink:href="#DejaVuSans-117"/>
     <use x="597.558594" xlink:href="#DejaVuSans-100"/>
     <use x="661.035156" xlink:href="#DejaVuSans-105"/>
     <use x="688.818359" xlink:href="#DejaVuSans-111"/>
     <use x="750" xlink:href="#DejaVuSans-32"/>
     <use x="781.787109" xlink:href="#DejaVuSans-102"/>
     <use x="816.992188" xlink:href="#DejaVuSans-105"/>
     <use x="844.775391" xlink:href="#DejaVuSans-108"/>
     <use x="872.558594" xlink:href="#DejaVuSans-101"/>
     <use x="934.082031" xlink:href="#DejaVuSans-32"/>
     <use x="965.869141" xlink:href="#DejaVuSans-100"/>
     <use x="1029.345703" xlink:href="#DejaVuSans-117"/>
     <use x="1092.724609" xlink:href="#DejaVuSans-114"/>
     <use x="1133.837891" xlink:href="#DejaVuSans-97"/>
     <use x="1195.117188" xlink:href="#DejaVuSans-116"/>
     <use x="1234.326172" xlink:href="#DejaVuSans-105"/>
     <use x="1262.109375" xlink:href="#DejaVuSans-111"/>
     <use x="1323.291016" xlink:href="#DejaVuSans-110"/>
     <use x="1386.669922" xlink:href="#DejaVuSans-32"/>
     <use x="1418.457031" xlink:href="#DejaVuSans-52"/>
     <use x="1482.080078" xlink:href="#DejaVuSans-32"/>
     <use x="1513.867188" xlink:href="#DejaVuSans-109"/>
     <use x="1611.279297" xlink:href="#DejaVuSans-105"/>
     <use x="1639.0625" xlink:href="#DejaVuSans-110"/>
     <use x="1702.441406" xlink:href="#DejaVuSans-32"/>
     <use x="1734.228516" xlink:href="#DejaVuSans-51"/>
     <use x="1797.851562" xlink:href="#DejaVuSans-52"/>
     <use x="1861.474609" xlink:href="#DejaVuSans-32"/>
     <use x="1893.261719" xlink:href="#DejaVuSans-115"/>
     <use x="1945.361328" xlink:href="#DejaVuSans-101"/>
     <use x="2006.884766" xlink:href="#DejaVuSans-99"/>
     <use x="2061.865234" xlink:href="#DejaVuSans-111"/>
     <use x="2123.046875" xlink:href="#DejaVuSans-110"/>
     <use x="2186.425781" xlink:href="#DejaVuSans-100"/>
     <use x="2249.902344" xlink:href="#DejaVuSans-115"/>
     <use x="2302.001953" xlink:href="#DejaVuSans-32"/>
     <use x="2333.789062" xlink:href="#DejaVuSans-40"/>
     <use x="2372.802734" xlink:href="#DejaVuSans-77"/>
     <use x="2459.082031" xlink:href="#DejaVuSans-101"/>
     <use x="2520.605469" xlink:href="#DejaVuSans-97"/>
     <use x="2581.884766" xlink:href="#DejaVuSans-110"/>
     <use x="2645.263672" xlink:href="#DejaVuSans-32"/>
     <use x="2677.050781" xlink:href="#DejaVuSans-111"/>
     <use x="2738.232422" xlink:href="#DejaVuSans-118"/>
     <use x="2797.412109" xlink:href="#DejaVuSans-101"/>
     <use x="2858.935547" xlink:href="#DejaVuSans-114"/>
     <use x="2900.048828" xlink:href="#DejaVuSans-32"/>
     <use x="2931.835938" xlink:href="#DejaVuSans-53"/>
     <use x="2995.458984" xlink:href="#DejaVuSans-32"/>
     <use x="3027.246094" xlink:href="#DejaVuSans-114"/>
     <use x="3068.359375" xlink:href="#DejaVuSans-117"/>
     <use x="3131.738281" xlink:href="#DejaVuSans-110"/>
     <use x="3195.117188" xlink:href="#DejaVuSans-115"/>
     <use x="3247.216797" xlink:href="#DejaVuSans-41"/>
    </g>
   </g>
   <g id="legend_1">
    <g id="patch_13">
     <path d="M 99.05 131.75025 
L 333.478594 131.75025 
Q 336.078594 131.75025 336.078594 129.15025 
L 336.078594 54.124 
Q 336.078594 51.524 333.478594 51.524 
L 99.05 51.524 
Q 96.45 51.524 96.45 54.124 
L 96.45 129.15025 
Q 96.45 131.75025 99.05 131.75025 
z
" style="fill:#ffffff;opacity:0.8;stroke:#cccccc;stroke-linejoin:miter;stroke-width:0.39;"/>
    </g>
    <g id="line2d_8">
     <path d="M 101.65 62.051969 
L 127.65 62.051969 
" style="fill:none;stroke:#000000;stroke-linecap:square;stroke-width:2.275;"/>
    </g>
    <g id="line2d_9">
     <defs>
      <path d="M 0 7.5 
L 0 -7.5 
" id="m0ae0730fc1"/>
     </defs>
     <g>
      <use x="114.65" xlink:href="#m0ae0730fc1" y="62.051969"/>
     </g>
    </g>
    <g id="text_11">
     <!-- Standard deviation -->
     <g transform="translate(138.05 66.601969)scale(0.13 -0.13)">
      <use xlink:href="#DejaVuSans-83"/>
      <use x="63.476562" xlink:href="#DejaVuSans-116"/>
      <use x="102.685547" xlink:href="#DejaVuSans-97"/>
      <use x="163.964844" xlink:href="#DejaVuSans-110"/>
      <use x="227.34375" xlink:href="#DejaVuSans-100"/>
      <use x="290.820312" xlink:href="#DejaVuSans-97"/>
      <use x="352.099609" xlink:href="#DejaVuSans-114"/>
      <use x="393.197266" xlink:href="#DejaVuSans-100"/>
      <use x="456.673828" xlink:href="#DejaVuSans-32"/>
      <use x="488.460938" xlink:href="#DejaVuSans-100"/>
      <use x="551.9375" xlink:href="#DejaVuSans-101"/>
      <use x="613.460938" xlink:href="#DejaVuSans-118"/>
      <use x="672.640625" xlink:href="#DejaVuSans-105"/>
      <use x="700.423828" xlink:href="#DejaVuSans-97"/>
      <use x="761.703125" xlink:href="#DejaVuSans-116"/>
      <use x="800.912109" xlink:href="#DejaVuSans-105"/>
      <use x="828.695312" xlink:href="#DejaVuSans-111"/>
      <use x="889.876953" xlink:href="#DejaVuSans-110"/>
     </g>
    </g>
    <g id="patch_14">
     <path d="M 101.65 85.683531 
L 127.65 85.683531 
L 127.65 76.583531 
L 101.65 76.583531 
z
" style="fill:#1f77b4;"/>
    </g>
    <g id="text_12">
     <!-- Full transfer; no Streaming -->
     <defs>
      <path d="M 9.8125 72.90625 
L 51.703125 72.90625 
L 51.703125 64.59375 
L 19.671875 64.59375 
L 19.671875 43.109375 
L 48.578125 43.109375 
L 48.578125 34.8125 
L 19.671875 34.8125 
L 19.671875 0 
L 9.8125 0 
z
" id="DejaVuSans-70"/>
      <path d="M 11.71875 51.703125 
L 22.015625 51.703125 
L 22.015625 39.3125 
L 11.71875 39.3125 
z
M 11.71875 12.40625 
L 22.015625 12.40625 
L 22.015625 4 
L 14.015625 -11.625 
L 7.71875 -11.625 
L 11.71875 4 
z
" id="DejaVuSans-59"/>
     </defs>
     <g transform="translate(138.05 85.683531)scale(0.13 -0.13)">
      <use xlink:href="#DejaVuSans-70"/>
      <use x="57.441406" xlink:href="#DejaVuSans-117"/>
      <use x="120.820312" xlink:href="#DejaVuSans-108"/>
      <use x="148.603516" xlink:href="#DejaVuSans-108"/>
      <use x="176.386719" xlink:href="#DejaVuSans-32"/>
      <use x="208.173828" xlink:href="#DejaVuSans-116"/>
      <use x="247.382812" xlink:href="#DejaVuSans-114"/>
      <use x="288.496094" xlink:href="#DejaVuSans-97"/>
      <use x="349.775391" xlink:href="#DejaVuSans-110"/>
      <use x="413.154297" xlink:href="#DejaVuSans-115"/>
      <use x="465.253906" xlink:href="#DejaVuSans-102"/>
      <use x="500.458984" xlink:href="#DejaVuSans-101"/>
      <use x="561.982422" xlink:href="#DejaVuSans-114"/>
      <use x="603.095703" xlink:href="#DejaVuSans-59"/>
      <use x="636.787109" xlink:href="#DejaVuSans-32"/>
      <use x="668.574219" xlink:href="#DejaVuSans-110"/>
      <use x="731.953125" xlink:href="#DejaVuSans-111"/>
      <use x="793.134766" xlink:href="#DejaVuSans-32"/>
      <use x="824.921875" xlink:href="#DejaVuSans-83"/>
      <use x="888.398438" xlink:href="#DejaVuSans-116"/>
      <use x="927.607422" xlink:href="#DejaVuSans-114"/>
      <use x="968.689453" xlink:href="#DejaVuSans-101"/>
      <use x="1030.212891" xlink:href="#DejaVuSans-97"/>
      <use x="1091.492188" xlink:href="#DejaVuSans-109"/>
      <use x="1188.904297" xlink:href="#DejaVuSans-105"/>
      <use x="1216.6875" xlink:href="#DejaVuSans-110"/>
      <use x="1280.066406" xlink:href="#DejaVuSans-103"/>
     </g>
    </g>
    <g id="patch_15">
     <path d="M 101.65 104.765094 
L 127.65 104.765094 
L 127.65 95.665094 
L 101.65 95.665094 
z
" style="fill:#ff7f0e;"/>
    </g>
    <g id="text_13">
     <!-- Full transfer; Streaming -->
     <g transform="translate(138.05 104.765094)scale(0.13 -0.13)">
      <use xlink:href="#DejaVuSans-70"/>
      <use x="57.441406" xlink:href="#DejaVuSans-117"/>
      <use x="120.820312" xlink:href="#DejaVuSans-108"/>
      <use x="148.603516" xlink:href="#DejaVuSans-108"/>
      <use x="176.386719" xlink:href="#DejaVuSans-32"/>
      <use x="208.173828" xlink:href="#DejaVuSans-116"/>
      <use x="247.382812" xlink:href="#DejaVuSans-114"/>
      <use x="288.496094" xlink:href="#DejaVuSans-97"/>
      <use x="349.775391" xlink:href="#DejaVuSans-110"/>
      <use x="413.154297" xlink:href="#DejaVuSans-115"/>
      <use x="465.253906" xlink:href="#DejaVuSans-102"/>
      <use x="500.458984" xlink:href="#DejaVuSans-101"/>
      <use x="561.982422" xlink:href="#DejaVuSans-114"/>
      <use x="603.095703" xlink:href="#DejaVuSans-59"/>
      <use x="636.787109" xlink:href="#DejaVuSans-32"/>
      <use x="668.574219" xlink:href="#DejaVuSans-83"/>
      <use x="732.050781" xlink:href="#DejaVuSans-116"/>
      <use x="771.259766" xlink:href="#DejaVuSans-114"/>
      <use x="812.341797" xlink:href="#DejaVuSans-101"/>
      <use x="873.865234" xlink:href="#DejaVuSans-97"/>
      <use x="935.144531" xlink:href="#DejaVuSans-109"/>
      <use x="1032.556641" xlink:href="#DejaVuSans-105"/>
      <use x="1060.339844" xlink:href="#DejaVuSans-110"/>
      <use x="1123.71875" xlink:href="#DejaVuSans-103"/>
     </g>
    </g>
    <g id="patch_16">
     <path d="M 101.65 123.846656 
L 127.65 123.846656 
L 127.65 114.746656 
L 101.65 114.746656 
z
" style="fill:#2ca02c;"/>
    </g>
    <g id="text_14">
     <!-- Time until playing; Streaming -->
     <defs>
      <path d="M 32.171875 -5.078125 
Q 28.375 -14.84375 24.75 -17.8125 
Q 21.140625 -20.796875 15.09375 -20.796875 
L 7.90625 -20.796875 
L 7.90625 -13.28125 
L 13.1875 -13.28125 
Q 16.890625 -13.28125 18.9375 -11.515625 
Q 21 -9.765625 23.484375 -3.21875 
L 25.09375 0.875 
L 2.984375 54.6875 
L 12.5 54.6875 
L 29.59375 11.921875 
L 46.6875 54.6875 
L 56.203125 54.6875 
z
" id="DejaVuSans-121"/>
     </defs>
     <g transform="translate(138.05 123.846656)scale(0.13 -0.13)">
      <use xlink:href="#DejaVuSans-84"/>
      <use x="61.037109" xlink:href="#DejaVuSans-105"/>
      <use x="88.820312" xlink:href="#DejaVuSans-109"/>
      <use x="186.232422" xlink:href="#DejaVuSans-101"/>
      <use x="247.755859" xlink:href="#DejaVuSans-32"/>
      <use x="279.542969" xlink:href="#DejaVuSans-117"/>
      <use x="342.921875" xlink:href="#DejaVuSans-110"/>
      <use x="406.300781" xlink:href="#DejaVuSans-116"/>
      <use x="445.509766" xlink:href="#DejaVuSans-105"/>
      <use x="473.292969" xlink:href="#DejaVuSans-108"/>
      <use x="501.076172" xlink:href="#DejaVuSans-32"/>
      <use x="532.863281" xlink:href="#DejaVuSans-112"/>
      <use x="596.339844" xlink:href="#DejaVuSans-108"/>
      <use x="624.123047" xlink:href="#DejaVuSans-97"/>
      <use x="685.402344" xlink:href="#DejaVuSans-121"/>
      <use x="744.582031" xlink:href="#DejaVuSans-105"/>
      <use x="772.365234" xlink:href="#DejaVuSans-110"/>
      <use x="835.744141" xlink:href="#DejaVuSans-103"/>
      <use x="899.220703" xlink:href="#DejaVuSans-59"/>
      <use x="932.912109" xlink:href="#DejaVuSans-32"/>
      <use x="964.699219" xlink:href="#DejaVuSans-83"/>
      <use x="1028.175781" xlink:href="#DejaVuSans-116"/>
      <use x="1067.384766" xlink:href="#DejaVuSans-114"/>
      <use x="1108.466797" xlink:href="#DejaVuSans-101"/>
      <use x="1169.990234" xlink:href="#DejaVuSans-97"/>
      <use x="1231.269531" xlink:href="#DejaVuSans-109"/>
      <use x="1328.681641" xlink:href="#DejaVuSans-105"/>
      <use x="1356.464844" xlink:href="#DejaVuSans-110"/>
      <use x="1419.84375" xlink:href="#DejaVuSans-103"/>
     </g>
    </g>
   </g>
  </g>
 </g>
 <defs>
  <clipPath id="p64649ad329">
   <rect height="415.736" width="645.53" x="89.95" y="45.024"/>
  </clipPath>
 </defs>
</svg>
